<svg xmlns="http://www.w3.org/2000/svg" width="23.153" height="23.612" viewBox="0 0 23.153 23.612">
  <g id="calendar" transform="translate(0.7 1.158)">
    <path id="Tracé_2" data-name="Tracé 2" d="M173.5,4170.865a2.364,2.364,0,1,1,2.364,2.364h0a2.365,2.365,0,1,1-2.364,2.365" transform="translate(-167.825 -4159.042)" fill="none" stroke="#fff" stroke-linecap="round" stroke-linejoin="round" stroke-width="1.4"/>
    <path id="Tracé_3" data-name="Tracé 3" d="M181.5,4170.392l1.892-1.892v9.458" transform="translate(-168.259 -4159.042)" fill="none" stroke="#fff" stroke-linecap="round" stroke-linejoin="round" stroke-width="1.4"/>
    <path id="Tracé_4" data-name="Tracé 4" d="M186.416,4160.5a2.837,2.837,0,0,1,2.837,2.837v14.187a2.837,2.837,0,0,1-2.837,2.837H170.337a2.837,2.837,0,0,1-2.837-2.837v-14.187a2.837,2.837,0,0,1,2.837-2.837" transform="translate(-167.5 -4158.608)" fill="none" stroke="#fff" stroke-linecap="round" stroke-linejoin="round" stroke-width="1.4"/>
    <line id="Ligne_7" data-name="Ligne 7" x2="8" transform="translate(7 1.542)" fill="none" stroke="#fff" stroke-linecap="round" stroke-linejoin="round" stroke-width="1.4"/>
    <line id="Ligne_8" data-name="Ligne 8" y2="4" transform="translate(5 -0.458)" fill="none" stroke="#fff" stroke-linecap="round" stroke-linejoin="round" stroke-width="1.4"/>
    <line id="Ligne_9" data-name="Ligne 9" y2="4" transform="translate(17 -0.458)" fill="none" stroke="#fff" stroke-linecap="round" stroke-linejoin="round" stroke-width="1.4"/>
    <line id="Ligne_10" data-name="Ligne 10" x2="21" transform="translate(0 6.542)" fill="none" stroke="#fff" stroke-linecap="round" stroke-linejoin="round" stroke-width="1.4"/>
  </g>
</svg>
